inDegrees=no
num_controls=7
num_derivatives=13
num_iterations=118
num_multipliers=7
num_parameters=0
num_slacks=7
num_states=26
objective=5.686559
objective_accelerations=0.639379
objective_balance=0.050898
objective_effort=0.513755
objective_height=4.379672
objective_ligament=0.102854
solver_duration=1392.176118
status=Solve_Succeeded
success=true
DataType=double
version=3
OpenSimVersion=4.4-2022-07-23-0e9fedc
endheader
time	/jointset/ground_pelvis/pelvis_tilt/value	/jointset/ground_pelvis/pelvis_tx/value	/jointset/ground_pelvis/pelvis_ty/value	/jointset/hip_l/hip_flexion_l/value	/jointset/hip_l/hip_adduction_l/value	/jointset/hip_l/hip_rotation_l/value	/jointset/back/lumbar_extension/value	/jointset/patellofemoral_l/patellar_flexion_l/value	/jointset/knee_l/knee_flexion_l/value	/jointset/knee_l/knee_adduction_l/value	/jointset/knee_l/knee_rotation_l/value	/jointset/ankle_l/ankle_angle_l/value	/jointset/subtalar_l/subtalar_angle_l/value	/jointset/ground_pelvis/pelvis_tilt/speed	/jointset/ground_pelvis/pelvis_tx/speed	/jointset/ground_pelvis/pelvis_ty/speed	/jointset/hip_l/hip_flexion_l/speed	/jointset/hip_l/hip_adduction_l/speed	/jointset/hip_l/hip_rotation_l/speed	/jointset/back/lumbar_extension/speed	/jointset/patellofemoral_l/patellar_flexion_l/speed	/jointset/knee_l/knee_flexion_l/speed	/jointset/knee_l/knee_adduction_l/speed	/jointset/knee_l/knee_rotation_l/speed	/jointset/ankle_l/ankle_angle_l/speed	/jointset/subtalar_l/subtalar_angle_l/speed	/forceset/tau_hip_flexion_l	/forceset/tau_hip_adduction_l	/forceset/tau_hip_rotation_l	/forceset/tau_knee_flexion_l	/forceset/tau_ankle_angle_l	/forceset/tau_subtalar_angle_l	/forceset/tau_lumbar_extension	lambda_cid13_p0	lambda_cid13_p1	lambda_cid13_p2	lambda_cid13_p3	lambda_cid13_p4	lambda_cid13_p5	lambda_cid14_p0	/jointset/ground_pelvis/pelvis_tilt/accel	/jointset/ground_pelvis/pelvis_tx/accel	/jointset/ground_pelvis/pelvis_ty/accel	/jointset/hip_l/hip_flexion_l/accel	/jointset/hip_l/hip_adduction_l/accel	/jointset/hip_l/hip_rotation_l/accel	/jointset/back/lumbar_extension/accel	/jointset/patellofemoral_l/patellar_flexion_l/accel	/jointset/knee_l/knee_flexion_l/accel	/jointset/knee_l/knee_adduction_l/accel	/jointset/knee_l/knee_rotation_l/accel	/jointset/ankle_l/ankle_angle_l/accel	/jointset/subtalar_l/subtalar_angle_l/accel	gamma_cid13_p0	gamma_cid13_p1	gamma_cid13_p2	gamma_cid13_p3	gamma_cid13_p4	gamma_cid13_p5	gamma_cid14_p0
1	-0.7616145463393083	-0.1918511066783318	0.5733143907589674	2.094394309288964	-0.3090830129722034	0.09228966119897682	-0.436317815878342	1.100999806606986	1.100999806607301	-0.1745024531455091	0.1745228116680475	-0.05138609353910234	-0.07054740243112453	-0.01123452747329333	-3.01832411116796e-05	-0.0033622670361285	0.01767697681534723	0.0004697680408403111	0.002766195172713359	5.859283676958104e-05	0.007296384211693534	0.007296384211694791	2.653265292401e-05	8.704068904376413e-06	0.001359268526236961	0.0006381975010938408	-0.4932897120583475	-0.007049740121503506	-0.01833787119864992	-0.2173850516059424	0.2479713516966148	0.02999631476435275	0.3817964111380181	31.86177164894234	-18.38058131254351	2.270277746885546	-0.4643917722535009	-736.0323447578173	-40.51017815441608	-3.80257521600698	2.205134442846875	0.4412922026669586	1.7581885835897	-6.707266013694432	-0.234733361474742	-1.545876724279103	-0.0276153269042629	-4.22616284107672	-4.226162841076509	-0.03199614276328271	0.009647259512190927	0.0393066346057682	-0.1721316853594795	3.355673388432099e-10	2.130685025643948e-09	-2.476700155843888e-09	4.919664739470271e-10	8.520429396573981e-10	-2.770160245347265e-09	8.821623336350072e-10
1.01	-0.7616175529094373	-0.1918294132050819	0.5733685896892929	2.094236706798147	-0.3090892689035555	0.09223950776026403	-0.4363175159458348	1.100861445662387	1.100861445662646	-0.1745021718867301	0.1745228199968391	-0.05137041644518906	-0.070548842625255	0.01063374273261505	0.004372379915364643	0.01420219773225647	-0.049200395350098	-0.00171915509766935	-0.0127941670316998	1.10654925331315e-05	-0.03496956041729702	-0.03496956041729742	2.816132556109099e-05	-8.259914338715706e-06	0.001777935747623111	-0.0009241435070086916	-0.4933027787488638	-0.007016837339220369	-0.01834535864168391	-0.217392916296297	0.2480574482843765	0.03000987672934525	0.3818476396820873	31.89026081072151	-18.39252822309134	2.273402988362772	-0.5373832785164283	-736.058296052435	-40.53133148546282	-3.808395148461818	2.177752363479333	0.4402640255720627	1.755596261121427	-6.678411307220725	-0.2107029174186112	-1.56071156099697	0.008129333964055376	-4.226957677144501	-4.226957677145279	0.01600747527515642	-0.007555083529736952	0.04341481640907071	-0.1479723160478077	-2.240510917154469e-09	-4.418133176079132e-09	1.381894771413337e-08	1.735728293096808e-09	-4.233465584292863e-09	1.662053223620864e-08	-3.403915109331896e-09
1.02	-0.7614018609666503	-0.1917635889695821	0.5735984374348342	2.093410242887931	-0.309117360291764	0.09203383158105945	-0.436317401132235	1.100300395790835	1.100300395790916	-0.1745019213205544	0.1745226213145799	-0.05135049906895392	-0.07056584363096764	0.03250517509914853	0.008795969208879076	0.03176749600706161	-0.1160953070855891	-0.003897323331379931	-0.02833835293507458	2.156903417569608e-05	-0.07724140117962687	-0.07724140117962815	2.039411812457532e-05	-3.269814906707219e-05	0.002207324989183876	-0.002473964815590785	-0.4933158454389468	-0.006983934556832211	-0.01835284608485113	-0.2174007809867181	0.2481435448720898	0.03002343869443166	0.3818988682266802	31.9157992650167	-18.40521255630312	2.278078523089211	-0.6236845749684714	-736.1353559998176	-40.53204377849301	-3.831985441264685	2.205766874971672	0.4454974300746254	1.758355284873722	-6.71077392770342	-0.232582380514955	-1.542641464071451	-0.01600914972862573	-4.227342067744523	-4.227342067744154	-0.03387531877801895	0.008152409215204773	0.0414510386407784	-0.169627745455403	-3.726451289153687e-09	-1.116808607923473e-08	2.990974096259946e-08	2.456333514551475e-11	-8.238356596398924e-09	3.601149187975608e-08	-7.845600304115127e-09
1.03	-0.7609672515882415	-0.1916533892573814	0.5740038978979927	2.091914688290125	-0.3091671629706794	0.09167280493596754	-0.4363170708889208	1.099316703715898	1.09931670371587	-0.174501798694754	0.1745221960323259	-0.05132626738640719	-0.07059827176263637	0.05443615682696117	0.01325093928678796	0.04932036651369916	-0.1830242173079703	-0.006059297830931761	-0.04386384559851937	3.597426510545333e-05	-0.1194873921162121	-0.1194873921162069	3.464937373198389e-06	-4.818999135227407e-05	0.002637732810740923	-0.00400823055473405	-0.4930056493286246	-0.006875104895516255	-0.01837540215750336	-0.2173775737393129	0.2481491398075278	0.03011122358099335	0.381761740292196	31.93319884627237	-18.44933064139921	2.288477702969766	-0.7148905342554243	-735.9588881649745	-40.60156086942297	-3.873547729238775	2.189680851519279	0.4465413510324021	1.753115946171044	-6.685241968694401	-0.207421128253734	-1.557043985533306	0.008889554622603095	-4.221781867892022	-4.22178186789188	0.01429376561859254	-0.005786922593963819	0.04364491633896011	-0.1448139856507202	-5.20126780519373e-09	-1.79200913773029e-08	4.599844385778482e-08	-1.716753936857847e-09	-1.223222089920045e-08	5.540245424944627e-08	-1.228887333310057e-08
